<svg width="248" height="62" viewBox="0 0 248 62" fill="none" xmlns="http://www.w3.org/2000/svg">
<path fill="#9D9D9D" d="M244.573 3.11558V58.8844H3.11558V3.11558H244.573ZM247.688 0H244.573H3.11558H0V3.11558V58.8844V62H3.11558H244.573H247.688V58.8844V3.11558V0Z"/>
<path fill="#9D9D9D" d="M15.9674 36.8417L16.7463 37.4648C19.3945 39.5678 22.6658 41.2035 26.093 41.2035C27.5729 41.2035 29.9096 40.5804 29.9096 38.7111C29.9096 36.8417 27.9623 36.6859 26.5603 36.4523L23.5226 35.907C17.6809 34.8945 12.7739 31.4673 12.7739 25.0025C12.7739 15.2663 21.6533 9.73618 30.6106 9.73618C35.2839 9.73618 39.6457 10.9045 43.696 13.3191L39.6457 23.8342C37.0754 22.1206 34.1935 20.7186 31 20.7186C29.6759 20.7186 27.8066 21.1859 27.8066 22.8995C27.8066 24.4573 29.6759 24.6131 30.8442 24.9246L34.1935 25.7035C40.5025 27.1055 45.098 30.5327 45.098 37.4648C45.098 47.2789 36.1407 52.1859 27.2613 52.1859C22.0427 52.1859 16.0452 50.7839 11.4498 48.4472L15.9674 36.8417Z"/>
<path fill="#9D9D9D" d="M47.9799 10.4372H62.5452L62.2337 28.2739H62.5452C62.8568 26.5603 63.7915 25.0804 64.6483 23.6005L71.892 10.3593H88.2488L75.2412 30.4548L89.495 51.5628H72.1256L65.0377 39.1005C64.1809 37.5427 62.8568 35.9849 62.5452 34.2714H62.2337L62.5452 51.5628H47.9799V10.4372Z"/>
<path fill="#9D9D9D" d="M113.874 46.3442H102.658L101.334 51.5628H85.6784L100.01 10.3593H128.985L132.801 21.5754H120.495L121.819 25.4699H134.126L137.864 36.1407H125.714L127.116 40.191H139.422L143.317 51.407H115.276L113.874 46.3442ZM111.382 36.6859L109.045 28.2739C108.656 26.8719 108.578 25.5477 108.422 24.1457H107.955C107.799 25.7814 107.643 27.3392 107.176 28.897L105.151 36.6859H111.382Z"/>
<path fill="#9D9D9D" d="M142.927 10.4372H160.998C170.266 10.4372 178.133 14.3317 178.133 24.7688C178.133 31 175.719 33.6482 170.189 35.4397V35.7513C170.967 36.3744 171.902 36.9975 172.681 38.2437L181.638 51.6407H164.347L157.804 38.3995H157.493V51.6407H142.849V10.4372H142.927ZM157.57 28.6633H158.583C161.075 28.6633 163.49 28.2739 163.49 25.2362C163.49 22.0427 161.231 21.6533 158.661 21.6533H157.493V28.6633H157.57Z"/>
<path fill="#9D9D9D" d="M188.103 10.4372H203.525L209.211 32.0905H209.601C209.912 30.299 210.146 28.3518 210.613 26.6382L215.286 10.5151H230.553L237.329 51.7186H222.842L220.817 29.1307H220.505C220.193 30.5327 219.96 31.9347 219.492 33.2588L213.573 51.7186H204.849L199.475 34.2714C199.008 32.5578 198.618 30.9221 198.54 29.1307H198.073C197.995 30.7663 197.839 32.4799 197.683 34.1156L195.97 51.7186H181.482L188.103 10.4372Z"/>
</svg>
