<svg width="21" height="22" viewBox="0 0 21 22" fill="none" xmlns="http://www.w3.org/2000/svg">
<path d="M20.877 19.8945C20.959 19.9766 21 20.0996 21 20.2227C21 20.3867 20.959 20.5098 20.877 20.5918L20.4668 20.9609C20.3438 21.084 20.2207 21.125 20.0977 21.125C19.9336 21.125 19.8516 21.084 19.7695 20.9609L14.4785 15.6699C14.3555 15.5879 14.3145 15.5059 14.3145 15.3418V14.9316C13.5352 15.6699 12.6328 16.2031 11.6484 16.6133C10.6641 17.0234 9.59766 17.1875 8.53125 17.1875C6.97266 17.1875 5.53711 16.8184 4.22461 16.0391C2.91211 15.3008 1.88672 14.2754 1.14844 12.9629C0.369141 11.6504 0 10.2148 0 8.65625C0 7.09766 0.369141 5.70312 1.14844 4.39062C1.88672 3.07812 2.91211 2.05273 4.22461 1.27344C5.53711 0.535156 6.97266 0.125 8.53125 0.125C10.0898 0.125 11.4844 0.535156 12.7969 1.27344C14.1094 2.05273 15.1348 3.07812 15.9141 4.39062C16.6523 5.70312 17.0625 7.09766 17.0625 8.65625C17.0625 9.76367 16.8574 10.8301 16.4473 11.8145C16.0371 12.7988 15.5039 13.7012 14.8066 14.4395H15.2168C15.3398 14.4395 15.4629 14.5215 15.5859 14.6035L20.877 19.8945ZM8.53125 15.875C9.84375 15.875 11.0332 15.5879 12.1406 14.9316C13.248 14.2754 14.1094 13.4141 14.7656 12.3066C15.4219 11.1992 15.75 9.96875 15.75 8.65625C15.75 7.34375 15.4219 6.1543 14.7656 5.04688C14.1094 3.93945 13.248 3.07812 12.1406 2.42188C11.0332 1.76562 9.84375 1.4375 8.53125 1.4375C7.21875 1.4375 5.98828 1.76562 4.88086 2.42188C3.77344 3.07812 2.91211 3.93945 2.25586 5.04688C1.59961 6.1543 1.3125 7.34375 1.3125 8.65625C1.3125 9.96875 1.59961 11.1992 2.25586 12.3066C2.91211 13.4141 3.77344 14.2754 4.88086 14.9316C5.98828 15.5879 7.21875 15.875 8.53125 15.875Z" fill="#fff"/>
</svg>
